<svg xmlns="http://www.w3.org/2000/svg" xmlns:xlink="http://www.w3.org/1999/xlink" width="1440" zoomAndPan="magnify" viewBox="0 0 1080 1079.999946" height="1440" preserveAspectRatio="xMidYMid meet" version="1.0"><defs><clipPath id="0d7abc5b35"><path d="M 139.285156 635 L 289.515625 635 L 289.515625 781.269531 L 139.285156 781.269531 Z M 139.285156 635 " clip-rule="nonzero"/></clipPath><clipPath id="d497c92fa8"><path d="M 213.476562 737.816406 L 199.808594 697.960938 C 197.566406 691.605469 194.574219 685.054688 190.640625 678.6875 L 186.527344 688.980469 C 179.785156 705.449219 178.476562 722.289062 182.226562 737.816406 Z M 228.445312 781.042969 L 216.09375 745.304688 L 184.46875 745.304688 C 189.515625 759.148438 198.875 771.683594 211.972656 781.042969 L 139.558594 781.042969 L 184.84375 669.703125 C 177.917969 660.53125 169.875 652.296875 161.453125 646.3125 L 238.738281 635.085938 L 289.253906 781.042969 Z M 228.445312 781.042969 " clip-rule="nonzero"/></clipPath><clipPath id="01f1cea863"><path d="M 268.144531 642.355469 L 499 642.355469 L 499 781.269531 L 268.144531 781.269531 Z M 268.144531 642.355469 " clip-rule="nonzero"/></clipPath><clipPath id="4196a4fead"><path d="M 498.835938 642.574219 L 457.664062 781.042969 L 402.089844 781.042969 L 386 734.074219 L 371.96875 781.042969 L 316.394531 781.042969 L 268.667969 642.574219 L 329.667969 642.574219 L 369.714844 761.765625 C 381.503906 731.449219 373.828125 682.800781 350.8125 642.566406 L 415.375 642.566406 L 455.421875 761.765625 C 467.210938 731.449219 459.535156 682.800781 436.519531 642.566406 Z M 498.835938 642.574219 " clip-rule="nonzero"/></clipPath><clipPath id="d0a7f831ba"><path d="M 502 638.582031 L 645 638.582031 L 645 786.929688 L 502 786.929688 Z M 502 638.582031 " clip-rule="nonzero"/></clipPath><clipPath id="53812c9700"><path d="M 511.933594 734.261719 L 511.933594 691.222656 C 511.933594 674.5625 508.191406 656.605469 502.574219 646.3125 L 568.070312 638.824219 L 568.070312 732.394531 C 568.070312 759.523438 576.304688 777.488281 588.65625 777.488281 L 588.65625 691.222656 C 588.65625 674.5625 584.914062 656.605469 579.296875 646.3125 L 644.792969 638.824219 L 644.792969 730.515625 C 644.792969 764.382812 615.785156 786.652344 571.816406 786.652344 C 535.707031 786.652344 511.941406 765.878906 511.941406 734.253906 " clip-rule="nonzero"/></clipPath><clipPath id="9e7e23f9c4"><path d="M 381.28125 288.671875 L 703 288.671875 L 703 602 L 381.28125 602 Z M 381.28125 288.671875 " clip-rule="nonzero"/></clipPath><clipPath id="826d900fa9"><path d="M 702.464844 601.820312 L 572.210938 601.820312 C 550.785156 530.585938 545.878906 436.628906 553.488281 425.308594 C 557.253906 419.699219 568.96875 427.34375 568.96875 427.34375 C 572.15625 429.71875 576.277344 433.027344 580.839844 437.429688 C 580.007812 433.234375 578.804688 429.738281 577.71875 427.121094 C 575.820312 422.511719 573.765625 419.257812 573.128906 418.285156 C 570.828125 414.734375 568.453125 411.996094 566.511719 410.003906 C 570.847656 408.964844 577.402344 407.964844 585.523438 408.789062 C 589.636719 409.207031 596.40625 410.332031 604.351562 413.753906 C 609.960938 416.164062 614.429688 418.988281 617.636719 421.296875 L 606.0625 403.804688 C 603.109375 399.972656 595.84375 391.578125 585.160156 388.613281 C 578.683594 386.820312 572.25 387.363281 569.464844 387.605469 C 565.453125 387.949219 562.210938 388.699219 559.929688 389.363281 C 561.667969 386.332031 564.828125 381.808594 570.15625 377.9375 C 572.027344 376.582031 576.820312 373.375 584.09375 371.75 C 589.769531 370.480469 594.769531 370.664062 598.15625 371.046875 C 595.453125 368.234375 588.789062 362.007812 579 359.699219 C 568.445312 357.214844 560.554688 360.746094 556.460938 362.589844 C 554.804688 363.335938 548.804688 366.167969 543.234375 372.542969 C 538.316406 378.164062 535.941406 384.035156 534.753906 387.808594 C 529.929688 385.285156 521.621094 381.761719 511.382812 381.445312 C 507.0625 381.3125 499.78125 381.171875 492.152344 385.109375 C 484.449219 389.089844 480.375 395.175781 478.402344 398.207031 C 476.605469 400.953125 475.417969 403.476562 474.652344 405.339844 C 478.964844 402.535156 485.394531 399.363281 493.882812 398.316406 C 498.390625 397.757812 504.644531 397.074219 512.355469 399.886719 C 516.796875 401.503906 520.207031 403.738281 522.441406 405.421875 C 517.703125 406.769531 509.636719 409.910156 502.96875 417.558594 C 497.957031 423.296875 495.828125 429.1875 494.789062 432.132812 C 492.199219 439.554688 491.769531 446.332031 491.816406 450.816406 C 496.089844 442.078125 501.117188 436.179688 504.78125 432.53125 C 505.289062 432.027344 515.476562 422.425781 524.984375 421.164062 C 526.460938 420.96875 529.445312 420.613281 532.574219 421.996094 C 532.574219 421.996094 534.761719 422.96875 536.53125 424.867188 C 546.550781 435.644531 536.660156 476.621094 536.660156 476.621094 C 533.285156 490.585938 522.433594 563.261719 517.046875 601.804688 L 381.28125 601.804688 L 478.4375 362.945312 C 463.585938 343.265625 446.320312 325.605469 428.257812 312.761719 L 594.058594 288.671875 Z M 702.464844 601.820312 " clip-rule="nonzero"/></clipPath><clipPath id="2bfc713fc2"><path d="M 656 635 L 806 635 L 806 781.46875 L 656 781.46875 Z M 656 635 " clip-rule="nonzero"/></clipPath><clipPath id="83e4addaba"><path d="M 729.933594 737.816406 L 716.265625 697.960938 C 714.023438 691.605469 711.03125 685.054688 707.09375 678.6875 L 702.980469 688.980469 C 696.242188 705.449219 694.933594 722.289062 698.679688 737.816406 Z M 744.898438 781.042969 L 732.550781 745.304688 L 700.925781 745.304688 C 705.972656 759.148438 715.332031 771.683594 728.429688 781.042969 L 656.015625 781.042969 L 701.300781 669.703125 C 694.371094 660.53125 686.332031 652.296875 677.910156 646.3125 L 755.191406 635.085938 L 805.71875 781.042969 Z M 744.898438 781.042969 " clip-rule="nonzero"/></clipPath><clipPath id="6f560053c0"><path d="M 813 642.542969 L 940.714844 642.542969 L 940.714844 781.46875 L 813 781.46875 Z M 813 642.542969 " clip-rule="nonzero"/></clipPath><clipPath id="29c549e4ac"><path d="M 935.765625 642.574219 L 935.765625 695.710938 C 910.320312 668.582031 880.9375 650.613281 861.847656 650.613281 C 856.976562 650.613281 853.796875 653.042969 853.796875 656.605469 C 853.796875 677.191406 940.4375 688.980469 940.4375 735.945312 C 940.4375 763.074219 918.359375 781.042969 884.863281 781.042969 L 813.199219 781.042969 L 813.199219 725.464844 C 839.207031 754.101562 871.578125 772.804688 894.96875 772.804688 C 899.089844 772.804688 901.710938 770.75 901.710938 767.570312 C 901.710938 745.675781 813.199219 738.5625 813.199219 688.417969 C 813.199219 660.726562 836.214844 642.574219 871.019531 642.574219 Z M 935.765625 642.574219 " clip-rule="nonzero"/></clipPath></defs><rect x="-108" width="1296" fill="#ffffff" y="-107.999995" height="1295.999935" fill-opacity="1"/><rect x="-108" width="1296" fill="#61cac6" y="-107.999995" height="1295.999935" fill-opacity="1"/><g clip-path="url(#0d7abc5b35)"><g clip-path="url(#d497c92fa8)"><path fill="#ffffff" d="M 134.886719 630.410156 L 649.695312 630.410156 L 649.695312 791.328125 L 134.886719 791.328125 Z M 134.886719 630.410156 " fill-opacity="1" fill-rule="nonzero"/></g></g><g clip-path="url(#01f1cea863)"><g clip-path="url(#4196a4fead)"><path fill="#ffffff" d="M 134.886719 630.410156 L 649.695312 630.410156 L 649.695312 791.328125 L 134.886719 791.328125 Z M 134.886719 630.410156 " fill-opacity="1" fill-rule="nonzero"/></g></g><g clip-path="url(#d0a7f831ba)"><g clip-path="url(#53812c9700)"><path fill="#ffffff" d="M 134.886719 630.410156 L 649.695312 630.410156 L 649.695312 791.328125 L 134.886719 791.328125 Z M 134.886719 630.410156 " fill-opacity="1" fill-rule="nonzero"/></g></g><g clip-path="url(#9e7e23f9c4)"><g clip-path="url(#826d900fa9)"><path fill="#ffffff" d="M 381.28125 288.671875 L 702.457031 288.671875 L 702.457031 601.445312 L 381.28125 601.445312 Z M 381.28125 288.671875 " fill-opacity="1" fill-rule="nonzero"/></g></g><g clip-path="url(#2bfc713fc2)"><g clip-path="url(#83e4addaba)"><path fill="#ffffff" d="M 651.339844 630.410156 L 944.960938 630.410156 L 944.960938 785.714844 L 651.339844 785.714844 Z M 651.339844 630.410156 " fill-opacity="1" fill-rule="nonzero"/></g></g><g clip-path="url(#6f560053c0)"><g clip-path="url(#29c549e4ac)"><path fill="#ffffff" d="M 651.339844 630.410156 L 944.960938 630.410156 L 944.960938 785.714844 L 651.339844 785.714844 Z M 651.339844 630.410156 " fill-opacity="1" fill-rule="nonzero"/></g></g></svg>