<svg xmlns="http://www.w3.org/2000/svg" xmlns:xlink="http://www.w3.org/1999/xlink" width="1440" zoomAndPan="magnify" viewBox="0 0 1080 670.49998" height="894" preserveAspectRatio="xMidYMid meet" version="1.0"><defs><clipPath id="3e5a62326a"><path d="M 6.261719 461.046875 L 206.367188 461.046875 L 206.367188 656 L 6.261719 656 Z M 6.261719 461.046875 " clip-rule="nonzero"/></clipPath><clipPath id="6cd4bc9c4b"><path d="M 105.082031 598.242188 L 86.878906 545.160156 C 83.890625 536.695312 79.90625 527.964844 74.664062 519.488281 L 69.183594 533.195312 C 60.207031 555.136719 58.464844 577.5625 63.457031 598.242188 Z M 125.019531 655.820312 L 108.570312 608.21875 L 66.445312 608.21875 C 73.171875 626.65625 85.632812 643.355469 103.078125 655.820312 L 6.628906 655.820312 L 66.945312 507.519531 C 57.71875 495.304688 47.007812 484.335938 35.789062 476.367188 L 138.726562 461.410156 L 206.015625 655.820312 Z M 125.019531 655.820312 " clip-rule="nonzero"/></clipPath><clipPath id="a4c0137551"><path d="M 178 471.09375 L 486 471.09375 L 486 656 L 178 656 Z M 178 471.09375 " clip-rule="nonzero"/></clipPath><clipPath id="8ab70a1b91"><path d="M 485.171875 471.386719 L 430.332031 655.820312 L 356.308594 655.820312 L 334.878906 593.261719 L 316.1875 655.820312 L 242.164062 655.820312 L 178.597656 471.386719 L 259.84375 471.386719 L 313.1875 630.144531 C 328.890625 589.761719 318.667969 524.964844 288.011719 471.375 L 374.003906 471.375 L 427.34375 630.144531 C 443.046875 589.761719 432.824219 524.964844 402.167969 471.375 Z M 485.171875 471.386719 " clip-rule="nonzero"/></clipPath><clipPath id="e0a9929540"><path d="M 490 466.070312 L 680 466.070312 L 680 663.660156 L 490 663.660156 Z M 490 466.070312 " clip-rule="nonzero"/></clipPath><clipPath id="bccc5e99d2"><path d="M 502.617188 593.511719 L 502.617188 536.183594 C 502.617188 513.996094 497.632812 490.074219 490.152344 476.367188 L 577.386719 466.390625 L 577.386719 591.019531 C 577.386719 627.15625 588.359375 651.089844 604.804688 651.089844 L 604.804688 536.183594 C 604.804688 513.996094 599.824219 490.074219 592.34375 476.367188 L 679.578125 466.390625 L 679.578125 588.519531 C 679.578125 633.628906 640.941406 663.289062 582.378906 663.289062 C 534.28125 663.289062 502.628906 635.621094 502.628906 593.5 " clip-rule="nonzero"/></clipPath><clipPath id="c9580d4fed"><path d="M 328.59375 0 L 757 0 L 757 417 L 328.59375 417 Z M 328.59375 0 " clip-rule="nonzero"/></clipPath><clipPath id="0d7470fca3"><path d="M 756.394531 417.105469 L 582.90625 417.105469 C 554.367188 322.222656 547.828125 197.074219 557.964844 181.992188 C 562.984375 174.523438 578.585938 184.707031 578.585938 184.707031 C 582.832031 187.871094 588.324219 192.277344 594.398438 198.144531 C 593.289062 192.550781 591.683594 187.894531 590.242188 184.410156 C 587.710938 178.269531 584.972656 173.9375 584.125 172.640625 C 581.0625 167.910156 577.902344 164.261719 575.3125 161.609375 C 581.089844 160.226562 589.816406 158.894531 600.636719 159.992188 C 606.117188 160.550781 615.132812 162.046875 625.714844 166.601562 C 633.1875 169.816406 639.136719 173.578125 643.410156 176.652344 L 627.992188 153.355469 C 624.058594 148.25 614.382812 137.066406 600.152344 133.121094 C 591.523438 130.730469 582.957031 131.453125 579.246094 131.777344 C 573.902344 132.238281 569.582031 133.234375 566.542969 134.117188 C 568.859375 130.082031 573.070312 124.054688 580.167969 118.902344 C 582.65625 117.09375 589.042969 112.824219 598.730469 110.65625 C 606.289062 108.964844 612.953125 109.214844 617.460938 109.722656 C 613.859375 105.976562 604.984375 97.683594 591.945312 94.609375 C 577.886719 91.296875 567.378906 96.003906 561.925781 98.457031 C 559.722656 99.453125 551.726562 103.222656 544.304688 111.714844 C 537.757812 119.199219 534.59375 127.019531 533.011719 132.050781 C 526.585938 128.6875 515.519531 123.992188 501.882812 123.570312 C 496.128906 123.394531 486.429688 123.210938 476.269531 128.453125 C 466.011719 133.753906 460.582031 141.863281 457.953125 145.894531 C 455.5625 149.558594 453.980469 152.917969 452.960938 155.398438 C 458.699219 151.660156 467.269531 147.441406 478.574219 146.046875 C 484.574219 145.296875 492.90625 144.390625 503.179688 148.136719 C 509.09375 150.292969 513.636719 153.265625 516.613281 155.507812 C 510.300781 157.300781 499.554688 161.484375 490.675781 171.671875 C 484.003906 179.316406 481.164062 187.160156 479.78125 191.082031 C 476.332031 200.96875 475.757812 209.996094 475.820312 215.972656 C 481.511719 204.332031 488.210938 196.476562 493.09375 191.617188 C 493.765625 190.945312 507.335938 178.160156 520 176.476562 C 521.96875 176.214844 525.941406 175.742188 530.109375 177.585938 C 530.109375 177.585938 533.023438 178.878906 535.378906 181.410156 C 548.726562 195.765625 535.550781 250.339844 535.550781 250.339844 C 531.058594 268.945312 516.601562 365.742188 509.429688 417.082031 L 328.59375 417.082031 L 458.003906 98.929688 C 438.21875 72.71875 415.21875 49.195312 391.164062 32.089844 L 612.003906 0 Z M 756.394531 417.105469 " clip-rule="nonzero"/></clipPath><clipPath id="b58e5c99d5"><path d="M 694 461 L 894 461 L 894 656 L 694 656 Z M 694 461 " clip-rule="nonzero"/></clipPath><clipPath id="b61a2bc95f"><path d="M 792.984375 598.242188 L 774.78125 545.160156 C 771.792969 536.695312 767.804688 527.964844 762.566406 519.488281 L 757.085938 533.195312 C 748.109375 555.136719 746.363281 577.5625 751.359375 598.242188 Z M 812.917969 655.820312 L 796.46875 608.21875 L 754.347656 608.21875 C 761.070312 626.65625 773.535156 643.355469 790.980469 655.820312 L 694.527344 655.820312 L 754.84375 507.519531 C 745.617188 495.304688 734.910156 484.335938 723.691406 476.367188 L 826.628906 461.410156 L 893.929688 655.820312 Z M 812.917969 655.820312 " clip-rule="nonzero"/></clipPath><clipPath id="2fa60be830"><path d="M 903.242188 471.347656 L 1073.738281 471.347656 L 1073.738281 656 L 903.242188 656 Z M 903.242188 471.347656 " clip-rule="nonzero"/></clipPath><clipPath id="a82cbd0022"><path d="M 1067.144531 471.386719 L 1067.144531 542.160156 C 1033.25 506.027344 994.117188 482.09375 968.6875 482.09375 C 962.203125 482.09375 957.96875 485.332031 957.96875 490.074219 C 957.96875 517.492188 1073.371094 533.195312 1073.371094 595.753906 C 1073.371094 631.886719 1043.960938 655.820312 999.34375 655.820312 L 903.890625 655.820312 L 903.890625 581.792969 C 938.53125 619.933594 981.652344 644.851562 1012.804688 644.851562 C 1018.296875 644.851562 1021.785156 642.109375 1021.785156 637.875 C 1021.785156 608.714844 903.890625 599.238281 903.890625 532.449219 C 903.890625 495.566406 934.546875 471.386719 980.90625 471.386719 Z M 1067.144531 471.386719 " clip-rule="nonzero"/></clipPath></defs><g clip-path="url(#3e5a62326a)"><g clip-path="url(#6cd4bc9c4b)"><path fill="#ffffff" d="M 0.402344 455.1875 L 686.109375 455.1875 L 686.109375 669.519531 L 0.402344 669.519531 Z M 0.402344 455.1875 " fill-opacity="1" fill-rule="nonzero"/></g></g><g clip-path="url(#a4c0137551)"><g clip-path="url(#8ab70a1b91)"><path fill="#ffffff" d="M 0.402344 455.1875 L 686.109375 455.1875 L 686.109375 669.519531 L 0.402344 669.519531 Z M 0.402344 455.1875 " fill-opacity="1" fill-rule="nonzero"/></g></g><g clip-path="url(#e0a9929540)"><g clip-path="url(#bccc5e99d2)"><path fill="#ffffff" d="M 0.402344 455.1875 L 686.109375 455.1875 L 686.109375 669.519531 L 0.402344 669.519531 Z M 0.402344 455.1875 " fill-opacity="1" fill-rule="nonzero"/></g></g><g clip-path="url(#c9580d4fed)"><g clip-path="url(#0d7470fca3)"><path fill="#ffffff" d="M 328.59375 0 L 756.390625 0 L 756.390625 416.601562 L 328.59375 416.601562 Z M 328.59375 0 " fill-opacity="1" fill-rule="nonzero"/></g></g><g clip-path="url(#b58e5c99d5)"><g clip-path="url(#b61a2bc95f)"><path fill="#ffffff" d="M 688.300781 455.1875 L 1079.394531 455.1875 L 1079.394531 662.042969 L 688.300781 662.042969 Z M 688.300781 455.1875 " fill-opacity="1" fill-rule="nonzero"/></g></g><g clip-path="url(#2fa60be830)"><g clip-path="url(#a82cbd0022)"><path fill="#ffffff" d="M 688.300781 455.1875 L 1079.394531 455.1875 L 1079.394531 662.042969 L 688.300781 662.042969 Z M 688.300781 455.1875 " fill-opacity="1" fill-rule="nonzero"/></g></g></svg>